<?xml version="1.0" encoding="utf-8"?>
<!-- Generator: Adobe Illustrator 22.0.0, SVG Export Plug-In . SVG Version: 6.00 Build 0)  -->
<svg version="1.1" id="Layer_1" xmlns="http://www.w3.org/2000/svg" xmlns:xlink="http://www.w3.org/1999/xlink" x="0px" y="0px"
	 viewBox="0 0 1600 900" style="enable-background:new 0 0 1600 900;" xml:space="preserve">
<style type="text/css">
	.Embossed_x0020_Blind{fill:none;stroke:#D5C1B5;stroke-width:2;}
	.Steel_x0020_Highlight{fill:url(#SVGID_1_);stroke:#FFFFFF;stroke-width:0.3629;stroke-miterlimit:1;}
	.st0{stroke:#000000;stroke-miterlimit:10;}
	.st1{fill:none;}
	.st2{fill:#FFFFFF;}
	.st3{display:none;}
	.st4{fill:url(#SVGID_2_);}
	.st5{opacity:0.51;fill:url(#SVGID_3_);}
	.st6{opacity:0.7;fill:url(#SVGID_4_);}
	.st7{opacity:0.49;}
	.st8{fill:none;stroke:#939393;stroke-width:0.5878;stroke-miterlimit:1;}
	.st9{opacity:0.58;}
	.st10{fill:#494949;}
</style>
<linearGradient id="SVGID_1_" gradientUnits="userSpaceOnUse" x1="0" y1="900" x2="6.123234e-17" y2="899">
	<stop  offset="0" style="stop-color:#888888"/>
	<stop  offset="0.618" style="stop-color:#676767"/>
	<stop  offset="0.6292" style="stop-color:#7A7A7A"/>
	<stop  offset="0.9831" style="stop-color:#6E6E6E"/>
</linearGradient>
<g id="Layer_1_1_">
	<g>
		<g>
			<path class="st0" d="M820.5,1547.4v6.8H372.3c-32.1-0.1-58.2-26.2-58.3-58.3V179.7c0.1-32.2,26.1-58.2,58.3-58.3h448.2v6.8H372.3
				c-28.4,0-51.5,23.1-51.5,51.5v1316.2c0,28.4,23.1,51.5,51.5,51.5H820.5z"/>
			<path class="st0" d="M1268.7,121.4c32.2,0.1,58.2,26.1,58.3,58.3v1316.2c-0.1,32.2-26.1,58.2-58.3,58.3H820.5v-6.8h448.2
				c28.4,0,51.5-23.1,51.5-51.5V179.7c0-28.4-23.1-51.5-51.5-51.5H820.5v-6.8L1268.7,121.4z"/>
			<path d="M820.5,180.1c3.9,0,7,3.2,7,7s-3.2,7-7,7l0,0V180.1z"/>
			<path class="st0" d="M813.4,186.2c0,3.9,3.2,7.1,7,7.1v43.2H383.9v1176.8h436.5v133.2H372.3c-28.4,0-51.5-23.1-51.5-51.5V178.7
				c0-28.4,23.1-51.5,51.5-51.5h448.2v52C816.6,179.1,813.5,182.3,813.4,186.2C813.4,186.1,813.4,186.2,813.4,186.2z"/>
			<path class="st0" d="M1320.2,178.7v1316.2c0,28.4-23.1,51.5-51.5,51.5H820.5v-133.2H1265V236.4H820.5v-43.2c3.9,0,7-3.2,7-7
				s-3.2-7-7-7l0,0v-52h448.2C1297.1,127.2,1320.2,150.2,1320.2,178.7z"/>
		</g>
		<g>
			<path class="st1" d="M820.5,1547.4h448.2c28.4,0,51.5-23.1,51.5-51.5V179.7c0-28.4-23.1-51.5-51.5-51.5H820.5"/>
			<path class="st1" d="M820.5,128.2H372.3c-28.4,0-51.5,23.1-51.5,51.5v1316.2c0,28.4,23.1,51.5,51.5,51.5h448.2"/>
			<path class="st2" d="M820.5,194.2c3.9,0,7-3.2,7-7s-3.2-7-7-7l0,0"/>
			<path class="st1" d="M820.5,194.2c-3.9,0-7-3.2-7-7s3.2-7,7-7"/>
			<path class="st1" d="M816.7,188.1c0.4,0.5,1,0.8,1.6,0.8c0.2,0,0.5,0,0.7-0.1"/>
			<path class="st1" d="M819.1,188.8c0.8-0.3,1.4-1.1,1.4-2"/>
			<path class="st1" d="M816.7,188.1c-0.7-0.9-0.6-2.2,0.3-3s2.2-0.6,3,0.3c0.3,0.4,0.5,0.8,0.5,1.3"/>
			<path class="st1" d="M816.7,188.1c0.1-0.6,0.6-1,1.2-1c0.7,0,1.3,0.6,1.3,1.3c0,0.1,0,0.2-0.1,0.4"/>
			<path class="st1" d="M816.7,188.1c0,0.1,0,0.2-0.1,0.3c0,0.7,0.6,1.3,1.3,1.3c0.5,0,1-0.4,1.2-0.9"/>
			<polyline class="st1" points="820.5,237.4 383.9,237.4 383.9,1414.2 820.5,1414.2 			"/>
			<polyline class="st1" points="820.5,237.4 1265,237.4 1265,1414.2 820.5,1414.2 			"/>
		</g>
	</g>
</g>
<g>

		<image style="overflow:visible;" width="11" height="10" xlink:href="96BAFCA.png"  transform="matrix(1.7424 0 0 1.7424 812 178.0879)">
	</image>
</g>
<g class="st3">

		<image style="display:inline;overflow:visible;" width="11" height="10" xlink:href="96BAFCE.png"  transform="matrix(1.5452 0 0 1.5452 812.04 179.5)">
	</image>
</g>
<g>
	<linearGradient id="SVGID_2_" gradientUnits="userSpaceOnUse" x1="821.0197" y1="196.1273" x2="821.0197" y2="178.0879">
		<stop  offset="0" style="stop-color:#888888"/>
		<stop  offset="0.618" style="stop-color:#676767"/>
		<stop  offset="0.6292" style="stop-color:#7A7A7A"/>
		<stop  offset="0.9831" style="stop-color:#6E6E6E"/>
	</linearGradient>
	<circle class="st4" cx="821" cy="187.1" r="9"/>
	<linearGradient id="SVGID_3_" gradientUnits="userSpaceOnUse" x1="821.0197" y1="196.1273" x2="821.0197" y2="178.0879">
		<stop  offset="0" style="stop-color:#5E5E5E"/>
		<stop  offset="0.5" style="stop-color:#1E1E1E"/>
		<stop  offset="0.5415" style="stop-color:#2B2B2B"/>
		<stop  offset="0.6346" style="stop-color:#414141"/>
		<stop  offset="0.7355" style="stop-color:#515151"/>
		<stop  offset="0.8488" style="stop-color:#5B5B5B"/>
		<stop  offset="1" style="stop-color:#5E5E5E"/>
	</linearGradient>
	<circle class="st5" cx="821" cy="187.1" r="9"/>
	<linearGradient id="SVGID_4_" gradientUnits="userSpaceOnUse" x1="821.0197" y1="178.0879" x2="821.0197" y2="196.1273">
		<stop  offset="0" style="stop-color:#FFFFFF;stop-opacity:0.77"/>
		<stop  offset="0.2033" style="stop-color:#FFFFFF;stop-opacity:0.65"/>
		<stop  offset="0.3448" style="stop-color:#FFFFFF;stop-opacity:0.65"/>
		<stop  offset="0.3462" style="stop-color:#FFFFFF;stop-opacity:0.65"/>
		<stop  offset="0.511" style="stop-color:#FFFFFF;stop-opacity:0"/>
		<stop  offset="0.5247" style="stop-color:#E1E1E1;stop-opacity:4.472275e-03"/>
		<stop  offset="0.5464" style="stop-color:#B8B8B8;stop-opacity:1.158136e-02"/>
		<stop  offset="0.5708" style="stop-color:#929292;stop-opacity:1.957367e-02"/>
		<stop  offset="0.5974" style="stop-color:#727272;stop-opacity:2.826838e-02"/>
		<stop  offset="0.6268" style="stop-color:#565656;stop-opacity:3.787606e-02"/>
		<stop  offset="0.6599" style="stop-color:#404040;stop-opacity:4.872554e-02"/>
		<stop  offset="0.6986" style="stop-color:#2F2F2F;stop-opacity:6.138782e-02"/>
		<stop  offset="0.7465" style="stop-color:#242424;stop-opacity:7.705475e-02"/>
		<stop  offset="0.8136" style="stop-color:#1D1D1D;stop-opacity:9.902187e-02"/>
		<stop  offset="1" style="stop-color:#1B1B1B;stop-opacity:0.16"/>
	</linearGradient>
	<circle class="st6" cx="821" cy="187.1" r="9"/>
	<g class="st7">
		<path class="st2" d="M821,195.4c-5-0.3-9.5-4.4-8.5-9.8c0.8-3.9,4.5-6.8,8.5-6.8c4,0,7.7,2.9,8.5,6.8
			C830.6,191,826,195.1,821,195.4c0,0,0,0.7,0,0.7c11.3-0.6,11.5-18,0-18.1c-11.5,0-11.3,17.5,0,18.1C821,196.1,821,195.4,821,195.4
			z"/>
	</g>
	<circle class="st8" cx="821" cy="187.1" r="9"/>
	<g class="st9">
		<path class="st10" d="M830,187c-0.6,11.5-17.8,11.8-17.8,0.1c0-11.7,17.2-11.5,17.8,0.1C830,187.1,830,187.1,830,187
			c-0.3-5.8-5.5-10.3-11.4-8.7c-3.9,1.1-6.6,4.7-6.6,8.7c0,3.9,2.5,7.4,6.2,8.6c6,2,11.5-2.6,11.9-8.6C830,187.1,830,187.1,830,187z
			"/>
	</g>
</g>
</svg>
