<svg xmlns="http://www.w3.org/2000/svg" width="610" height="190" viewBox="0 0 610 190">
  <defs>
    <style>
      .cls-1 {
        fill: #34c142;
      }
    </style>
  </defs>
  <title>start_spil</title>
  <g id="artwork">
    <rect class="cls-1" x="67" y="43" width="450" height="120" rx="25.62" ry="25.62"/>
    <g>
      <path d="M154.57,87.63a7.44,7.44,0,0,0-7.34-4.75c-4.46,0-6.77,2.67-6.77,5.76,0,1.44.5,4,5.18,5.83l4.83,1.94c8.86,3.6,11.3,8.64,11.3,14.11,0,9.15-6.48,15.41-15.48,15.41-5.54,0-8.86-2.09-11.3-4.83a15.55,15.55,0,0,1-4-9.36l7.27-1.58a10.37,10.37,0,0,0,2,6.12,7.58,7.58,0,0,0,6.27,2.88,7.72,7.72,0,0,0,7.92-8.07c0-4.9-3.74-6.91-6.91-8.21L142.9,101c-4-1.66-9.79-5-9.79-12.17,0-6.48,5-12.67,14-12.67a14.17,14.17,0,0,1,9.65,3.24,16.38,16.38,0,0,1,3.67,4.83Z"/>
      <path d="M182.86,83.88V125h-7.34V83.88h-11V77h29.38v6.91Z"/>
      <path d="M225.71,113.41H205.18L199.93,125H192l23.91-50.84L238.67,125h-7.92Zm-3-6.91-7.13-16.27-7.42,16.27Z"/>
      <path d="M253.28,77c5.83,0,9.58.72,12.67,2.81,5.26,3.53,5.69,9.22,5.69,11.3A13.17,13.17,0,0,1,261,104.48L276,125H267.1l-13.75-19.66h-1.3V125h-7.34V77Zm-1.22,22h2.3c2,0,10.23-.22,10.23-7.85,0-6.77-6.41-7.42-10-7.42h-2.52Z"/>
      <path d="M296.48,83.88V125h-7.34V83.88h-11V77H307.5v6.91Z"/>
      <path d="M351.49,87.63a7.44,7.44,0,0,0-7.34-4.75c-4.46,0-6.77,2.67-6.77,5.76,0,1.44.5,4,5.18,5.83l4.82,1.94c8.86,3.6,11.31,8.64,11.31,14.11,0,9.15-6.48,15.41-15.48,15.41-5.54,0-8.86-2.09-11.3-4.83a15.54,15.54,0,0,1-4-9.36l7.27-1.58a10.37,10.37,0,0,0,2,6.12,7.58,7.58,0,0,0,6.26,2.88,7.72,7.72,0,0,0,7.92-8.07c0-4.9-3.74-6.91-6.91-8.21L339.82,101c-4-1.66-9.79-5-9.79-12.17,0-6.48,5-12.67,14-12.67a14.16,14.16,0,0,1,9.65,3.24,16.36,16.36,0,0,1,3.67,4.83Z"/>
      <path d="M378.48,77c3,0,7.06.29,10.51,2.59a13.9,13.9,0,0,1,6,11.67,13.45,13.45,0,0,1-4.68,10.51c-3.82,3.24-8.21,3.74-11.74,3.74h-3.31V125H367.9V77Zm-3.24,21.75h3.31c6.34,0,9.36-3.1,9.36-7.56,0-2.66-1.08-7.42-9.43-7.42h-3.24Z"/>
      <path d="M409.8,77v48h-7.34V77Z"/>
      <path d="M428.67,77v41.12h14.11V125H421.32V77Z"/>
    </g>
  </g>
</svg>
